<svg width="15" height="16" viewBox="0 0 15 16" fill="none" xmlns="http://www.w3.org/2000/svg">
<path d="M9.25358 7.92901L10.5138 7.94718L10.5138 7.95108C10.5319 9.0595 11.439 9.95555 12.5516 9.95555C12.9834 9.95555 13.3839 9.82023 13.7138 9.5903C13.9429 10.0592 14.0282 10.5868 13.937 11.1123C13.8165 11.8062 13.3879 12.4124 12.7611 12.7754C12.1768 13.1138 11.4767 13.2148 10.7353 13.3217C10.3382 13.379 9.92753 13.4382 9.52637 13.5372C8.4656 13.7987 7.43814 14.3091 6.44454 14.8026C4.45616 15.7902 2.73891 16.6431 1.11975 15.5209C-0.0663049 14.6989 -0.0115302 13.178 0.126651 12.3445C0.254687 11.5724 0.600888 10.8613 0.935699 10.1735C0.993648 10.0545 1.04992 9.93793 1.10513 9.82209C1.27119 9.88851 1.44778 9.93376 1.63184 9.9543C1.29105 11.0791 1.82703 12.3021 2.95197 12.88L3.1059 12.9591L3.26898 12.9011C4.15832 12.5844 4.97776 12.0761 5.70465 11.3903C6.17453 10.9471 6.5783 10.4567 6.91031 9.93264C7.0099 9.94764 7.1118 9.95555 7.2155 9.95555C8.33545 9.95555 9.24732 9.04758 9.25358 7.92901ZM1.85915 6.69122C2.54184 6.69122 3.09718 7.24656 3.09718 7.92919C3.09718 8.61182 2.54184 9.16723 1.85915 9.16723C1.17658 9.16723 0.62118 8.61182 0.62118 7.92919C0.62118 7.24656 1.17658 6.69122 1.85915 6.69122ZM12.5516 6.67946C13.2343 6.67946 13.7896 7.2348 13.7896 7.91743C13.7896 8.60006 13.2343 9.15546 12.5516 9.15546C11.869 9.15546 11.3136 8.60006 11.3136 7.91743C11.3136 7.2348 11.869 6.67946 12.5516 6.67946ZM7.2155 6.67946C7.89813 6.67946 8.45347 7.2348 8.45347 7.91743C8.45347 8.60006 7.89813 9.15546 7.2155 9.15546C6.53293 9.15546 5.97752 8.60006 5.97752 7.91743C5.97752 7.2348 6.53293 6.67946 7.2155 6.67946ZM14.0712 0.0529633L12.0766 5.93583C11.9902 5.95656 11.9059 5.9827 11.824 6.01413L9.85365 1.99454L7.87752 5.99036C7.79212 5.96091 7.70424 5.9367 7.61411 5.91878L5.62634 0.0529633H14.0712Z" fill="black"/>
</svg>
