<svg width="94" height="83" viewBox="0 0 94 83" fill="none" xmlns="http://www.w3.org/2000/svg">
<path d="M76.4844 27.151C75.4973 26.8244 74.5101 26.516 73.523 26.2256C73.6875 25.5543 73.8337 24.8829 73.98 24.2115C76.2285 13.397 74.7478 4.70541 69.7572 1.83847C64.9494 -0.901461 57.107 1.94734 49.1732 8.80623C48.3872 9.4776 47.6194 10.1853 46.8882 10.8929C46.3946 10.4212 45.8828 9.94938 45.3709 9.49574C37.0532 2.16508 28.7173 -0.919606 23.7267 1.96548C18.9372 4.72355 17.5113 12.907 19.5222 23.1409C19.7233 24.1571 19.9426 25.1551 20.1986 26.1712C19.0286 26.4978 17.8769 26.8607 16.7984 27.2418C7.03655 30.5986 0.0350952 35.897 0.0350952 41.3769C0.0350952 47.0382 7.49357 52.7176 17.6393 56.1652C18.4619 56.4374 19.2845 56.7096 20.1254 56.9455C19.8512 58.0342 19.6136 59.1047 19.3942 60.2116C17.4748 70.2822 18.9738 78.2661 23.7633 81.006C28.699 83.8367 36.9984 80.9334 45.0784 73.9112C45.7182 73.3487 46.358 72.7681 46.9979 72.1512C47.8022 72.9314 48.6431 73.6754 49.484 74.4012C57.3081 81.0786 65.0408 83.7822 69.812 81.0423C74.7478 78.2117 76.3565 69.629 74.2725 59.1773C74.1079 58.3789 73.9251 57.5624 73.7241 56.7277C74.309 56.5644 74.8757 56.383 75.4424 56.2015C85.9903 52.7358 93.6316 47.1289 93.6316 41.3769C93.6316 35.8789 86.429 30.5442 76.4844 27.151ZM51.7508 11.7458C58.5512 5.8667 64.8945 3.56226 67.7829 5.21347C70.8723 6.97356 72.0605 14.0865 70.1228 23.4313C69.9948 24.0482 69.8669 24.647 69.7023 25.2458C65.644 24.3385 61.5309 23.6853 57.3995 23.3224C55.023 19.9474 52.4272 16.7175 49.612 13.6873C50.3249 13.0159 51.0196 12.3808 51.7508 11.7458ZM30.6002 50.7942C31.5325 52.3729 32.4831 53.9515 33.4885 55.4939C30.6368 55.1854 27.8033 54.7318 25.0063 54.133C25.8107 51.5201 26.8161 48.8164 27.9861 46.0583C28.827 47.6551 29.6862 49.2338 30.6002 50.7942ZM25.0612 28.9656C27.6936 28.3849 30.4905 27.9131 33.3971 27.5502C32.4283 29.0563 31.4777 30.5986 30.5819 32.1591C29.6862 33.7015 28.8087 35.2801 27.9861 36.8769C26.8344 34.1732 25.8655 31.524 25.0612 28.9656ZM30.0701 41.4676C31.2766 38.9636 32.5928 36.514 33.9821 34.1007C35.3714 31.6873 36.8704 29.3466 38.4426 27.0422C41.1846 26.8426 43.9816 26.7337 46.8333 26.7337C49.6851 26.7337 52.5003 26.8426 55.2241 27.0422C56.778 29.3285 58.2587 31.6692 59.6663 34.0644C61.0739 36.4595 62.3901 38.9091 63.6332 41.395C62.4084 43.8991 61.0922 46.3668 59.6846 48.7983C58.2952 51.2116 56.8145 53.5523 55.2607 55.8749C52.5369 56.0745 49.7034 56.1652 46.8333 56.1652C43.9633 56.1652 41.1846 56.0745 38.4974 55.9112C36.907 53.6068 35.408 51.2479 34.0004 48.8346C32.5928 46.4212 31.2949 43.9716 30.0701 41.4676ZM63.0848 50.7579C64.0171 49.1612 64.8945 47.5463 65.7537 45.9132C66.9237 48.5442 67.9474 51.2116 68.8431 53.9515C66.0097 54.5866 63.1396 55.0765 60.2513 55.4031C61.2384 53.8789 62.1707 52.3184 63.0848 50.7579ZM65.7172 36.8769C64.858 35.2801 63.9805 33.6833 63.0665 32.1228C62.1707 30.5805 61.2384 29.0563 60.2696 27.5502C63.2127 27.9131 66.0279 28.4031 68.6603 29.0018C67.8194 31.6873 66.8323 34.3002 65.7172 36.8769ZM46.8699 16.4635C48.7894 18.5321 50.5991 20.7095 52.2809 22.9595C48.6614 22.7962 45.0236 22.7962 41.404 22.9595C43.1955 20.6188 45.0418 18.4413 46.8699 16.4635ZM25.6644 5.34049C28.7356 3.56226 35.5542 6.10259 42.7385 12.4171C43.1955 12.8163 43.6525 13.2518 44.1278 13.6873C41.2943 16.7175 38.6802 19.9474 36.2855 23.3224C32.154 23.6853 28.0592 24.3204 24.0009 25.2095C23.7633 24.2841 23.5622 23.3405 23.3611 22.397C21.6427 13.6147 22.7761 6.99171 25.6644 5.34049ZM21.1857 53.1713C20.4179 52.9535 19.6684 52.7176 18.9189 52.4636C15.0252 51.2479 10.6013 49.3245 7.40216 46.8023C5.55583 45.5321 4.31275 43.5725 3.96542 41.3769C3.96542 38.0563 9.74207 33.8103 18.078 30.9252C19.12 30.5623 20.1803 30.2357 21.2405 29.9273C22.4836 33.8648 23.9826 37.7297 25.7193 41.4676C23.9644 45.26 22.4471 49.1793 21.1857 53.1713ZM42.5008 70.9536C39.4846 73.6935 35.993 75.8709 32.1906 77.3588C30.1615 78.3205 27.8216 78.4113 25.7376 77.5947C22.831 75.9254 21.6244 69.5201 23.2697 60.9011C23.4708 59.885 23.6901 58.8689 23.9461 57.8709C28.0409 58.7418 32.1723 59.3406 36.3586 59.6491C38.7716 63.0423 41.4223 66.2903 44.2558 69.3387C43.6708 69.9012 43.0858 70.4455 42.5008 70.9536ZM46.9796 66.5443C45.115 64.5483 43.2503 62.3346 41.4406 59.9576C43.1955 60.0302 45.0053 60.0664 46.8333 60.0664C48.7162 60.0664 50.5626 60.0302 52.3906 59.9394C50.7088 62.2439 48.899 64.4394 46.9796 66.5443ZM70.8723 71.9878C70.7078 74.2016 69.6109 76.2701 67.856 77.6673C64.9494 79.3367 58.7523 77.1592 52.0616 71.4616C51.2938 70.8084 50.526 70.1007 49.7399 69.3749C52.5369 66.3084 55.1144 63.0604 57.4543 59.6491C61.6406 59.3043 65.8086 58.6693 69.9217 57.7439C70.1045 58.4878 70.269 59.2318 70.4153 59.9576C71.311 63.8769 71.4573 67.9596 70.8723 71.9878ZM74.1993 52.4817C73.6875 52.6451 73.1756 52.8084 72.6455 52.9535C71.3659 48.9979 69.7937 45.1329 67.984 41.3769C69.7389 37.6753 71.2196 33.8648 72.4627 29.9635C73.4133 30.2357 74.3273 30.526 75.2048 30.8164C83.7235 33.7196 89.7013 38.0382 89.7013 41.3406C89.7013 44.897 83.3214 49.4878 74.1993 52.4817ZM46.8333 49.76C51.4583 49.76 55.2058 46.0402 55.2058 41.4495C55.2058 36.8587 51.4583 33.139 46.8333 33.139C42.2084 33.139 38.4608 36.8587 38.4608 41.4495C38.4608 46.0402 42.2084 49.76 46.8333 49.76Z" fill="#C4C4C4"/>
</svg>
