<svg width="41" height="93" viewBox="0 0 41 93" fill="none" xmlns="http://www.w3.org/2000/svg">
<path d="M20.2765 0C24.6465 0 28.1861 3.51337 28.1861 7.851C28.1861 11.1171 26.1724 13.9196 23.3075 15.1044V18.4117C23.3075 21.6366 25.7468 24.3772 28.975 24.7791L29.9299 24.9027C35.0992 25.5518 39.1058 29.2403 40.1335 34.3095C41.1611 39.3786 38.919 44.3241 34.4037 46.9205C32.3485 48.0951 30.1064 48.806 27.7397 49.0327L13.3842 50.3721C11.9206 50.506 10.5401 50.9491 9.26334 51.6806C6.65795 53.1745 6.14933 55.7606 6.54377 57.677C6.93821 59.5934 8.42255 61.7777 11.4016 62.1486L12.3566 62.2722C18.7091 63.0553 23.4943 68.4438 23.4943 74.8008V77.8712C26.2658 79.087 28.2068 81.8482 28.2068 85.0525C28.2068 89.3901 24.6673 92.9035 20.2973 92.9035C15.9273 92.9035 12.3877 89.3901 12.3877 85.0525C12.3877 81.7967 14.3911 78.9942 17.2456 77.8094V74.8008C17.2456 71.576 14.8063 68.8353 11.5781 68.4335L10.6231 68.3099C5.45387 67.6608 1.44719 63.9722 0.419573 58.9031C-0.618428 53.8339 1.63403 48.8884 6.14933 46.292C8.20457 45.1175 10.4467 44.4066 12.8133 44.1799L27.1688 42.8405C28.6324 42.7065 30.013 42.2635 31.2897 41.532C33.8951 40.038 34.4037 37.4519 34.0093 35.5356C33.6148 33.6192 32.1305 31.4349 29.1514 31.064L28.1965 30.9403C21.8439 30.1573 17.0587 24.7688 17.0587 18.4117V15.022C14.2976 13.7959 12.367 11.045 12.367 7.851C12.367 3.51337 15.9065 0 20.2765 0ZM29.7846 52.5357L34.2169 57.3576C37.5488 60.9946 39.3861 65.6929 39.3861 70.5972H33.127C33.127 67.2383 31.871 64.0238 29.5978 61.5407L22.0619 53.3394L28.0823 52.7727L28.9373 52.6697L29.7846 52.5357ZM6.87593 22.3784C6.87593 25.7373 8.13191 28.9518 10.4051 31.4349L17.9618 39.6568L12.3981 40.1823L11.3264 40.3059L10.2702 40.4914L5.79641 35.618C2.46443 31.9913 0.627173 27.2827 0.627173 22.3784H6.87593Z" fill="#C4C4C4"/>
</svg>
