<svg width="95" height="71" viewBox="0 0 95 71" fill="none" xmlns="http://www.w3.org/2000/svg">
<path d="M81.2864 40.7782C78.0211 40.7952 75.1832 41.578 72.8068 42.7352C71.935 41.0164 71.0631 39.4849 70.9092 38.3617C70.7383 37.0514 70.5331 36.2516 70.7383 34.686C70.9434 33.1204 71.8666 30.8911 71.8495 30.721C71.8324 30.5508 71.6443 29.751 69.7638 29.734C67.8833 29.717 66.2592 30.0913 66.0711 30.5848C65.8831 31.0783 65.5241 32.2015 65.2847 33.3587C64.9599 35.0604 61.5237 41.1356 59.5576 44.3178C58.9251 43.0755 58.378 41.9864 58.2584 41.1185C58.0874 39.8082 57.8823 39.0084 58.0874 37.4428C58.2925 35.8772 59.2157 33.648 59.1986 33.4778C59.1815 33.3076 58.9935 32.5078 57.1129 32.4908C55.2324 32.4738 53.6083 32.8481 53.4203 33.3416C53.2322 33.8351 53.0271 34.9923 52.6339 36.1155C52.2407 37.2386 47.6761 47.3809 46.4794 50.0016C45.8639 51.3459 45.334 52.418 44.9579 53.1498C44.9579 53.1498 44.9408 53.2008 44.8895 53.2859C44.5647 53.9155 44.3766 54.2559 44.3766 54.2559C44.3766 54.2559 44.3766 54.2559 44.3766 54.2729C44.1202 54.7324 43.8466 55.1578 43.7099 55.1578C43.6073 55.1578 43.4192 53.9325 43.7441 52.2649C44.4279 48.7423 46.052 43.2627 46.0349 43.0755C46.0349 42.9734 46.3426 42.0205 44.9749 41.527C43.6415 41.0335 43.1628 41.8503 43.0431 41.8503C42.9235 41.8503 42.838 42.1396 42.838 42.1396C42.838 42.1396 44.3253 35.9793 40.0001 35.9793C37.299 35.9793 33.5721 38.9233 31.7257 41.578C30.5632 42.2076 28.0843 43.552 25.4345 44.9985C24.4258 45.56 23.383 46.1216 22.4085 46.6492C22.3402 46.5811 22.2718 46.496 22.2034 46.4279C16.9721 40.8633 7.29589 36.9323 7.70619 29.4617C7.86005 26.7389 8.80032 19.5917 26.2893 10.9129C40.6839 3.85069 52.1381 5.80767 54.1212 10.1471C56.9591 16.3414 47.9838 27.8451 33.1105 29.5127C27.4347 30.1424 24.46 27.9642 23.7078 27.1473C22.9214 26.2965 22.8017 26.2454 22.5111 26.4156C22.0324 26.6709 22.3402 27.4366 22.5111 27.8791C22.9556 29.0363 24.7849 31.0783 27.8792 32.0824C30.6145 32.9673 37.2648 33.4608 45.3169 30.3636C54.3263 26.8921 61.3698 17.2433 59.3012 9.16008C57.2326 0.957749 43.556 -1.748 30.6145 2.82965C22.9214 5.55242 14.5787 9.84077 8.57807 15.4224C1.44914 22.0592 0.320819 27.828 0.782405 30.2445C2.44069 38.8212 14.3222 44.4029 19.0749 48.5381C18.8355 48.6742 18.6133 48.7933 18.4252 48.8954C16.0489 50.0696 6.98817 54.7834 4.73153 59.7695C2.16716 65.4192 5.14182 69.4693 7.10784 70.0139C13.211 71.6986 19.4852 68.6695 22.853 63.6664C26.2209 58.6634 25.8106 52.1628 24.2549 49.1847C24.2378 49.1507 24.2207 49.1167 24.1865 49.0826C24.802 48.7253 25.4345 48.3509 26.0499 47.9935C27.2637 47.2788 28.4604 46.6151 29.4862 46.0706C28.9049 47.6532 28.4775 49.5421 28.2724 52.2649C28.016 55.4641 29.3323 59.6163 31.059 61.25C31.8283 61.9647 32.7344 61.9817 33.3156 61.9817C35.3329 61.9817 36.239 60.314 37.2477 58.34C38.4786 55.9236 39.5898 53.1157 39.5898 53.1157C39.5898 53.1157 38.205 60.7054 41.9661 60.7054C43.3338 60.7054 44.7185 58.9356 45.334 58.0337C45.334 58.0507 45.334 58.0507 45.334 58.0507C45.334 58.0507 45.3682 57.9997 45.4365 57.8806C45.5733 57.6593 45.6588 57.5232 45.6588 57.5232C45.6588 57.5232 45.6588 57.5062 45.6588 57.4892C46.2058 56.5362 47.4367 54.375 49.266 50.7844C51.6252 46.1557 53.8989 40.3698 53.8989 40.3698C53.8989 40.3698 54.1041 41.7822 54.805 44.1306C55.2153 45.509 56.0701 47.0235 56.7539 48.487C56.2069 49.2528 55.865 49.6782 55.865 49.6782C55.865 49.6782 55.865 49.6782 55.882 49.6952C55.4376 50.2738 54.9589 50.9035 54.4289 51.5161C52.5655 53.7283 50.343 56.2639 50.0353 56.9957C49.6763 57.8635 49.7618 58.4932 50.4456 59.0037C50.9414 59.3781 51.8304 59.4291 52.7364 59.3781C54.4118 59.259 55.5914 58.8505 56.1727 58.5953C57.0788 58.272 58.1387 57.7785 59.1302 57.0467C60.9595 55.7023 62.0707 53.7794 61.9681 51.2438C61.9169 49.8484 61.4553 48.453 60.8911 47.1427C61.0621 46.9044 61.2159 46.6662 61.3869 46.4279C64.2761 42.2247 66.5156 37.613 66.5156 37.613C66.5156 37.613 66.7208 39.0254 67.4217 41.3738C67.7636 42.565 68.4645 43.8583 69.08 45.1176C66.3618 47.3128 64.6864 49.8654 64.088 51.5331C63.011 54.6303 63.8487 56.0257 65.4386 56.349C66.1566 56.5022 67.1824 56.1618 67.9346 55.8385C68.8919 55.5322 70.0202 55.0046 71.0973 54.2218C72.9265 52.8775 74.6874 51.0056 74.5848 48.47C74.5335 47.3128 74.2258 46.1727 73.7984 45.0665C76.1063 44.1136 79.081 43.586 82.8763 44.0285C91.0138 44.9815 92.6208 50.0356 92.3131 52.1628C92.0054 54.2899 90.2958 55.4471 89.7317 55.8045C89.1675 56.1618 88.9794 56.2809 89.0307 56.5362C89.0991 56.9106 89.3727 56.8936 89.8513 56.8255C90.5181 56.7064 94.1253 55.1067 94.2791 51.1928C94.5356 46.1897 89.7487 40.7271 81.2864 40.7782ZM18.2881 61.7405C15.5659 64.6211 11.7754 65.7097 10.1386 64.7886C8.38122 63.8005 9.07039 59.5466 12.4129 56.4986C14.446 54.6396 17.0648 52.9146 18.805 51.8595C19.2013 51.6251 19.7871 51.2901 20.4935 50.8714C20.6141 50.8044 20.683 50.771 20.683 50.771C20.8208 50.6872 20.9587 50.6035 21.0965 50.5197C22.3198 54.8741 21.1482 58.7093 18.2881 61.7405ZM38.4284 48.7707C37.4722 51.0757 35.473 56.9759 34.2561 56.6491C33.213 56.3738 32.5698 51.9014 34.0475 47.4806C34.795 45.2616 36.377 42.6125 37.2984 41.5804C38.7935 39.9291 40.445 39.3786 40.8448 40.0495C41.349 40.9268 39.0195 47.3258 38.4284 48.7707ZM54.2641 56.3985C53.8698 56.5957 53.4926 56.7272 53.3211 56.6286C53.2011 56.5629 53.4926 56.2999 53.4926 56.2999C53.4926 56.2999 55.5329 54.1964 56.3387 53.2432C56.8017 52.6844 57.3503 52.0271 57.9333 51.2875C57.9333 51.3533 57.9333 51.4354 57.9333 51.5012C57.9333 54.0156 55.3957 55.7083 54.2641 56.3985ZM67.3674 53.5909C67.083 53.3767 67.1332 52.6624 68.0868 50.4305C68.4549 49.5555 69.3249 48.0914 70.8139 46.6808C70.9812 47.2521 71.0983 47.8057 71.0816 48.3235C71.0649 51.7696 68.756 53.0553 67.3674 53.5909Z" fill="#C4C4C4"/>
</svg>
