<svg width="95" height="93" viewBox="0 0 95 93" fill="none" xmlns="http://www.w3.org/2000/svg">
<path d="M0.806671 46.4546V92.9064H94.4061V0H0.806671V46.4546ZM76.2352 42.753C78.6117 43.3424 80.4251 44.3904 82.0894 46.1004C82.9522 47.015 84.2289 48.6814 84.3328 49.0792C84.362 49.1953 80.292 51.9098 77.8249 53.4297C77.7371 53.4877 77.3788 53.1059 76.9767 52.5151C75.7731 50.7732 74.511 50.0227 72.5791 49.8906C69.7419 49.699 67.8993 51.1738 67.9285 53.6358C67.9285 54.3587 68.0309 54.7855 68.3292 55.3777C68.9537 56.661 70.1134 57.4274 73.752 58.9923C80.4529 61.8519 83.3193 63.739 85.1005 66.4245C87.0895 69.4178 87.537 74.1965 86.1857 77.75C84.6998 81.6143 81.0159 84.2388 75.8316 85.1097C74.2273 85.3899 70.4234 85.3464 68.7007 85.0372C64.9422 84.3738 61.3768 82.5302 59.1772 80.1118C58.3144 79.1683 56.637 76.7049 56.7408 76.5263C56.7847 76.4683 57.1722 76.2317 57.6037 75.9805L61.0799 73.9918L63.7708 72.4429L64.3353 73.2704C65.1221 74.465 66.8463 76.101 67.8861 76.6468C70.8724 78.2102 74.9731 77.9881 76.9928 76.1896C77.8556 75.4086 78.211 74.5971 78.211 73.4025C78.211 72.3254 78.0793 71.8536 77.5134 71.0436C76.7851 70.0129 75.2992 69.142 71.0786 67.3274C66.2496 65.2632 64.17 63.98 62.2689 61.9448C61.1691 60.7647 60.1293 58.8776 59.6979 57.2997C59.341 55.9874 59.2518 52.698 59.5341 51.3713C60.5285 46.7261 64.0501 43.5108 69.1321 42.5527C70.7817 42.2435 74.6163 42.3611 76.2337 42.7588L76.2352 42.753ZM54.262 46.6288L54.2912 50.4321H42.109V84.7918H33.4923V50.4321H21.3102V46.7014L21.4125 42.8691C21.4564 42.8111 28.871 42.7821 37.8592 42.7966L54.2166 42.8401L54.262 46.6288Z" fill="#C4C4C4"/>
</svg>
